<?xml version="1.0" encoding="UTF-8" standalone="no"?>
<!DOCTYPE svg PUBLIC "-//W3C//DTD SVG 1.1//EN"
"http://www.w3.org/Graphics/SVG/1.1/DTD/svg11.dtd">
<svg viewBox="0 0 935 1210" version="1.1" xmlns="http://www.w3.org/2000/svg" xmlns:xlink="http://www.w3.org/1999/xlink">
<defs>
<clipPath id="c0_1"><path d="M71.6 423.4V390.1h52.7v33.3Z"/></clipPath>
<clipPath id="c1_1"><path d="M71.6 594.1V560.9h32.1v33.2Z"/></clipPath>
<clipPath id="c2_1"><path d="M71.6 998.6V971.1h82.5v27.5Z"/></clipPath>
<style type="text/css"><![CDATA[
.g0_1{
fill: #FFF;
}
.g1_1{
fill: #FFE599;
}
.g2_1{
fill: none;
stroke: #000;
stroke-width: 1.527;
stroke-miterlimit: 10;
}
]]></style>
</defs>
<path d="M0 0H935V1210H0V0Z" class="g0_1"/>
<path d="M69.3 144.9H255.2v25.7H69.3V144.9Z" class="g1_1"/>
<path d="M69.3 335.1H272.5v25.7H69.3V335.1Z" class="g1_1"/>
<path d="M69.3 470.3H787.4v19.3H69.3V470.3Z" class="g0_1"/>
<path d="M69.3 492.1H864.5v19.3H69.3V492.1Z" class="g0_1"/>
<path d="M69.3 513.9H669.9v19.2H69.3V513.9Z" class="g0_1"/>
<path d="M69.3 641.1H446.5v19.2H69.3V641.1Z" class="g0_1"/>
<path d="M69.3 662.8H362.8v19.3H69.3V662.8Z" class="g0_1"/>
<path d="M69.3 684.6H544.6v19.3H69.3V684.6Z" class="g0_1"/>
<path d="M69.3 706.4H272.8v19.2H69.3V706.4Z" class="g0_1"/>
<path d="M69.3 749.9H735.5v19.3H69.3V749.9Z" class="g0_1"/>
<path d="M69.3 771.7h253v19.2H69.3V771.7Z" class="g0_1"/>
<path d="M69.3 793.5H362.8v19.2H69.3V793.5Z" class="g0_1"/>
<path d="M69.3 815.2H749.1v19.3H69.3V815.2Z" class="g0_1"/>
<path d="M69.3 837H383.4v19.3H69.3V837Z" class="g0_1"/>
<path d="M69.3 880.5H280.4v19.3H69.3V880.5Z" class="g0_1"/>
<path d="M69.3 902.3H541.1v19.3H69.3V902.3Z" class="g0_1"/>
<path d="M69.3 924.1H775.9v19.2H69.3V924.1Z" class="g0_1"/>
<path d="M69.3 1045.5h793v19.3H69.3v-19.3Z" class="g0_1"/>
<path d="M69.3 1067.3h41.9v19.3H69.3v-19.3Z" class="g0_1"/>
<path d="M68.8 116.9H215.4m13.8 0H385m13.8 0H550" class="g2_1"/>
<image clip-path="url(#c0_1)" preserveAspectRatio="none" x="72" y="390" width="52" height="33" xlink:href="img/1.png"/>
<image clip-path="url(#c1_1)" preserveAspectRatio="none" x="72" y="561" width="34" height="33" xlink:href="img/2.jpg"/>
<image clip-path="url(#c2_1)" preserveAspectRatio="none" x="72" y="971" width="82" height="28" xlink:href="img/3.jpg"/>
</svg>