<?xml version="1.0" encoding="UTF-8" standalone="no"?>
<!DOCTYPE svg PUBLIC "-//W3C//DTD SVG 1.1//EN"
"http://www.w3.org/Graphics/SVG/1.1/DTD/svg11.dtd">
<svg viewBox="0 0 935 1210" version="1.1" xmlns="http://www.w3.org/2000/svg" xmlns:xlink="http://www.w3.org/1999/xlink">
<defs>
<clipPath id="c0_1"><path d="M0,1210V0H935V1210Z"/></clipPath>
<clipPath id="c1_1"><path d="M0,1208.9V0H935V1208.9Z"/></clipPath>
<style type="text/css"><![CDATA[
.g0_1{
fill: #FFFFFF;
}
.g1_1{
}
.g2_1{
fill: #999999;
}
]]></style>
</defs>
<path d="M0,0H935V1210H0V0Z" class="g0_1"/>
<path d="M0,0H935V1210H0V0Z" class="g0_1"/>
<g clip-path="url(#c0_1)">
<path d="M0,0H935V3630H0V0Z" class="g0_1"/>
</g>
<path d="M0,0H935V1208.9H0V0Z" class="g0_1"/>
<g clip-path="url(#c1_1)">
<path d="M0,68.8H935V1210H0V68.8Z" class="g0_1"/>
</g>
<path d="M68.8,418.2H798.6v19.5H68.8V418.2Z" class="g0_1"/>
<path d="M68.8,440H787.2v19.5H68.8V440Z" class="g0_1"/>
<path d="M68.8,461.8H836.5v19.5H68.8V461.8Z" class="g0_1"/>
<path d="M68.8,483.5h637V503H68.8V483.5Z" class="g0_1"/>
<path d="M68.8,584.4H843.3v19.5H68.8V584.4Z" class="g0_1"/>
<path d="M68.8,606.1H307.1v19.5H68.8V606.1Z" class="g0_1"/>
<path d="M68.8,707H837.6v19.5H68.8V707Z" class="g0_1"/>
<path d="M68.8,728.8H834.2v19.4H68.8V728.8Z" class="g0_1"/>
<path d="M68.8,750.5H845.6V770H68.8V750.5Z" class="g0_1"/>
<path d="M68.8,772.3H834.2v19.5H68.8V772.3Z" class="g0_1"/>
<path d="M68.8,794.1H792.9v19.4H68.8V794.1Z" class="g0_1"/>
<path d="M68.8,815.8H224.6v19.5H68.8V815.8Z" class="g0_1"/>
<path d="M0,0V0Z" class="g1_1"/>
<image preserveAspectRatio="none" x="71" y="367" width="83" height="27" xlink:href="img/1.png"/>
<image preserveAspectRatio="none" x="71" y="531" width="30" height="29" xlink:href="img/2.png"/>
<image preserveAspectRatio="none" x="71" y="653" width="30" height="30" xlink:href="img/3.png"/>
<image preserveAspectRatio="none" x="71" y="863" width="30" height="30" xlink:href="img/4.png"/>
<image preserveAspectRatio="none" x="71" y="1056" width="23" height="23" xlink:href="img/5.png"/>
<path d="M68.8,116.9H215.4V118H68.8v-1.1Z" class="g2_1"/>
<path d="M230.3,116.9H385V118H230.3v-1.1Z" class="g2_1"/>
<path d="M399.9,116.9H550V118H399.9v-1.1Z" class="g2_1"/>
</svg>