<?xml version="1.0" encoding="UTF-8" standalone="no"?>
<!DOCTYPE svg PUBLIC "-//W3C//DTD SVG 1.1//EN"
"http://www.w3.org/Graphics/SVG/1.1/DTD/svg11.dtd">
<svg viewBox="0 0 935 1210" version="1.1" xmlns="http://www.w3.org/2000/svg" xmlns:xlink="http://www.w3.org/1999/xlink">
<defs>
<clipPath id="c0_1"><path d="M71.6 469.2V436h52.7v33.2Z"/></clipPath>
<clipPath id="c1_1"><path d="M71.6 664V628.5H106V664Z"/></clipPath>
<clipPath id="c2_1"><path d="M71.6 835.9V802.6h32.1v33.3Z"/></clipPath>
<style type="text/css"><![CDATA[
.g0_1{
fill: #FFF;
}
.g1_1{
fill: #FFE599;
}
.g2_1{
fill: none;
stroke: #000;
stroke-width: 1.527;
stroke-miterlimit: 10;
}
]]></style>
</defs>
<path d="M0 0H935V1210H0V0Z" class="g0_1"/>
<path d="M69.3 167.8H255.2v25.7H69.3V167.8Z" class="g1_1"/>
<path d="M69.3 381H272.5v25.6H69.3V381Z" class="g1_1"/>
<path d="M69.3 516.2H787.4v19.2H69.3V516.2Z" class="g0_1"/>
<path d="M69.3 537.9H864.5v19.3H69.3V537.9Z" class="g0_1"/>
<path d="M69.3 559.7H669.9V579H69.3V559.7Z" class="g0_1"/>
<path d="M69.3 711H859.5v19.2H69.3V711Z" class="g0_1"/>
<path d="M69.3 732.7h93.1V752H69.3V732.7Z" class="g0_1"/>
<path d="M69.3 882.8H446.5v19.3H69.3V882.8Z" class="g0_1"/>
<path d="M69.3 904.6H362.8v19.3H69.3V904.6Z" class="g0_1"/>
<path d="M69.3 926.4H544.6v19.2H69.3V926.4Z" class="g0_1"/>
<path d="M69.3 948.2H272.8v19.2H69.3V948.2Z" class="g0_1"/>
<path d="M69.3 991.7H735.5v19.2H69.3V991.7Z" class="g0_1"/>
<path d="M69.3 1013.5h253v19.2H69.3v-19.2Z" class="g0_1"/>
<path d="M69.3 1035.2H362.8v19.3H69.3v-19.3Z" class="g0_1"/>
<path d="M69.3 1057H749.1v19.3H69.3V1057Z" class="g0_1"/>
<path d="M69.3 1078.8H383.4V1098H69.3v-19.2Z" class="g0_1"/>
<path d="M68.8 116.9H215.4m13.8 0H385m13.8 0H550" class="g2_1"/>
<image clip-path="url(#c0_1)" preserveAspectRatio="none" x="72" y="436" width="52" height="33" xlink:href="img/1.png"/>
<image clip-path="url(#c1_1)" preserveAspectRatio="none" x="72" y="628" width="34" height="36" xlink:href="img/2.jpg"/>
<image clip-path="url(#c2_1)" preserveAspectRatio="none" x="72" y="803" width="34" height="33" xlink:href="img/3.jpg"/>
</svg>