<?xml version="1.0" encoding="utf-8"?>
<!-- Generator: Adobe Illustrator 22.0.1, SVG Export Plug-In . SVG Version: 6.00 Build 0)  -->
<svg version="1.1" xmlns="http://www.w3.org/2000/svg" xmlns:xlink="http://www.w3.org/1999/xlink" x="0px" y="0px"
	 viewBox="0 0 404 403.9" style="enable-background:new 0 0 404 403.9;" xml:space="preserve">
<style type="text/css">
	.st0{display:none;}
	.st1{stroke:#99BE68;stroke-width:0.2964;}
	path{fill:white;}
</style>
<g id="Layer_2" class="st0">
</g>
<g id="Layer_1">
	<path class="st1" d="M365,166.5"/>
	<path class="st1" d="M44.9,166.5"/>
	<path class="st1" d="M55.6,155.8"/>
	<path class="st1" d="M354.4,155.8"/>
	<path d="M371.6,141.1l-16.6,5.7c-1.5-4.2-3-8.4-5-12.5l4-1.9c1.1,2.2,2.2,4.2,2.8,6.3l0.7,2.2l12.2-4.9l-0.8-1.9
		c-2.4-6.2-5.6-12-8.3-17.9l-1-2l-15.6,8.4c-2.3-3.8-4.6-7.8-7.1-11.6l3.8-2.6c1.2,1.9,2.4,4,3.7,6.1l1.1,1.7l10.9-6.7l-1-1.8
		c-3-5.3-6.6-10.1-10.1-14.8l0,0l-2.4-3.1l-0.1-0.1h0l-0.1-0.1l-13.8,10.7c-2.8-3.7-6.1-6.9-9-10.1l3.3-3.2l6.2,6.8l9.8-8.5
		l-1.4-1.6c-4.4-4.8-8.7-9.8-13.8-14.2l-1.5-1.3l-11.8,12.8c-3.3-3.1-6.8-6-10.5-8.7l2.7-3.6l7.3,5.5l8.3-10l-1.8-1.3
		c-4.7-3.4-9.3-7.1-14.3-10.5l0,0l-3.5-2.3l-9.7,14.8c-3.7-2.2-7.4-4.8-11.6-6.9l2-4c2.1,1,4.1,2.2,6.1,3.4l1.9,1.2l6.5-11.2
		l-1.7-1.1c-5.7-3.8-12-6.1-17.6-9l-2-1l-7.1,16.1c-4.3-1.8-8.6-3.2-12.8-4.8l1.4-4.3l8.6,3.2l4.5-12.1l-1.9-0.8
		c-5.5-2.2-11.2-4-17-5.5l0,0l-4.1-1l-4.3,16.9c-4.4-1.2-8.9-1.9-13.3-2.5l0.6-4.5l9.1,1.4l2.5-12.8l-2.2-0.3
		c-6.3-0.9-12.8-2.3-19.6-2.6l-2-0.1l-1.4,17.5c-3.7-0.2-7.6-0.6-11.6-0.6c-0.7,0-1.4,0-2,0l-0.1-4.5c0.8,0,1.5,0,2.3,0
		c1.5,0,3.1,0.1,4.7,0.2l2.2,0.2l0.4-12.9l-2-0.2c-1.7-0.2-3.3-0.2-4.9-0.2c-4.5,0-8.8,0.4-13,0.6l0-0.1l-2.4,0.2l-1.6,0v0.1l-0.3,0
		l1.4,17.4c-4.6,0.4-9,1.3-13.4,1.9l-0.9-4.5l9.1-1.4L180,23.2l-2.1,0.3c-6.5,0.9-13,1.9-19.5,3.8l-1.9,0.6l4.2,16.9
		c-4.4,1.1-8.8,2.4-13,4.1l-1.6-4.2l8.6-3.2l-3.9-12.4l-2.1,0.8c-5.4,2-11.1,3.9-16.6,6.2l0-0.1l-3.9,1.7l7.1,16.1
		c-3.9,1.9-8.1,3.6-12.1,6l-2.3-3.9c2-1.2,4.1-2.2,6.2-3.2l2-0.9l-5.8-11.6l-1.8,0.8c-6.3,2.7-11.7,6.7-17.2,9.8l-1.9,1.1l9.6,14.8
		c-3.8,2.6-7.4,5.4-11,8.1l-2.9-3.5l7.4-5.5l-7.7-10.4l-1.7,1.2c-4.9,3.4-9.5,7.2-13.9,11.3l0,0l-3.1,2.9L91,83.6
		c-3.4,3.1-6.4,6.4-9.4,9.7l-3.4-3l6.2-6.8l-9.3-9.1l-1.5,1.7c-4.2,4.8-9.1,9.3-13,15l-1.1,1.6l13.7,10.7c-2.7,3.6-5.4,7.2-7.8,11.2
		l-3.8-2.3c1.3-2.1,2.4-4.1,3.8-5.8l1.4-1.8L56,97.2l-1.2,1.7c-3.5,4.9-6.4,10.1-9.5,15.1l-0.1-0.1l-1.1,2l-0.9,1.4l0.1,0.1
		l-0.1,0.2l15.5,8.4c-1.9,4-4,8-5.8,12.2l-4.2-1.7c0.9-2.1,2-4.1,3.1-6.4l0.8-1.9L41,122.8l-1,1.8c-3.1,6-5.3,12.3-7.5,18.4l-0.7,2
		l16.5,5.7c-1.6,4.4-2.5,8.9-3.6,13.2l-4.4-1l2.3-8.9L30,150.4l-0.5,2.1c-1.4,5.6-3.1,11.3-4,17.3l0,0l-0.7,4.2l17.3,2.9
		c-0.7,4.4-1.3,8.9-1.5,13.4l-4.5-0.2c0.1-2.4,0.2-4.8,0.5-7l0.3-2.2l-13-1.4l-0.2,2.1c-0.7,6.6-0.8,13.2-1.1,19.6l-0.1,2.2l17.7,0
		c0.2,4.5,0.4,9.1,0.7,13.6l-4.5,0.5c-0.2-2.3-0.2-4.7-0.4-7.1l-0.1-2.1L23,209.1l0,2c0.1,6,0.9,12,1.8,17.8l0,0l0.7,4.2l17.2-2.9
		c0.7,4.6,1.9,8.9,3,13.2l-4.4,1.2l-2.3-8.9l-12.7,2.8l0.6,2.2c1.8,6.1,2.8,12.7,5.4,19.1l0.8,1.8l16.5-5.6c1.5,4.2,3,8.5,5.1,12.7
		l-4,1.9c-1.1-2.2-2.2-4.2-2.8-6.3l-0.7-2.2L35,267l0.8,1.9c2.2,5.7,5,10.9,7.5,16.2l-0.1,0.1l1.2,2.1l0.7,1.4l0.1,0l0.1,0.2
		l15.5-8.4c2.3,3.8,4.5,7.7,7.1,11.5l-3.8,2.6c-1.2-1.9-2.4-4-3.7-6.1l-1.1-1.7l-11,6.7l1,1.8c3.3,5.9,7.3,11.1,11.3,16.3l1.3,1.7
		l13.8-10.7c2.8,3.7,6.1,6.9,9.1,10.2l-3.3,3.2l-6.2-6.8l-9.8,8.5l1.5,1.6c3.9,4.3,7.8,8.8,12.3,12.8l0,0l3.1,2.9l11.8-12.9
		c3.3,3.1,6.8,5.9,10.4,8.6l-2.7,3.6l-7.4-5.5l-8.3,10l1.8,1.3c5.2,3.8,10.3,8,15.9,11.6l1.8,1.1l9.7-14.7c3.8,2.3,7.5,4.9,11.7,7
		l-2,4c-2.1-1-4.1-2.2-6.1-3.4l-1.9-1.2l-6.5,11.2l1.7,1.1c5.2,3.4,10.8,5.7,16,8.2l0,0.1l2.2,1l1.4,0.7l0-0.1l0.3,0.1l7-16.1
		c4.2,1.8,8.5,3.2,12.7,4.7l-1.4,4.3l-8.6-3.2l-4.5,12.1l1.9,0.8c6.2,2.4,12.5,4.5,19,5.9l2,0.5l4.3-16.9c4.5,1.2,8.9,1.9,13.4,2.6
		l-0.6,4.4l-9.1-1.4l-2.5,12.8l2.2,0.3c5.7,0.8,11.5,2,17.5,2.5l0,0l4.2,0.3l1.4-17.6c3.7,0.2,7.5,0.6,11.5,0.6c0.7,0,1.3,0,2,0
		l0.1,4.5c-0.8,0-1.5,0-2.3,0c-1.6,0-3.1-0.1-4.7-0.2l-2.2-0.2l-0.4,13l2,0.2c1.6,0.1,3.3,0.2,4.9,0.2c5.1,0,10.1-0.6,14.9-0.7
		l2.2-0.1l-1.4-17.5c4.7-0.4,9.1-1.3,13.5-1.9l0.9,4.5l-9.1,1.4l1.7,12.8l2.1-0.3c5.8-0.8,11.7-1.7,17.5-3.3l0,0l4.1-1l-4.3-17
		c4.4-1.1,8.7-2.4,12.9-4l1.6,4.2l-8.6,3.2l3.9,12.4l2.1-0.8c6-2.3,12.3-4.3,18.4-7l1.9-0.9l-7.1-16.1c3.9-1.9,8.2-3.7,12.2-6
		l2.3,3.9c-2,1.2-4.1,2.2-6.2,3.2l-2,0.9l5.8,11.5l1.8-0.8c5.7-2.5,10.6-5.9,15.6-8.9l0.1,0.1l2-1.3l1.3-0.8l0-0.1l0.2-0.1
		l-9.6-14.7c3.8-2.6,7.3-5.4,10.9-8l2.9,3.5l-7.4,5.5l7.7,10.4l1.7-1.2c5.4-3.8,10.6-8,15.3-12.6l1.5-1.4l-11.8-12.8
		c3.4-3.1,6.5-6.5,9.5-9.8l3.4,3l-6.2,6.8l9.3,9.1l1.5-1.7c3.7-4.3,8-8.4,11.7-13.3l0,0l2.6-3.3l-13.9-10.8c2.7-3.5,5.4-7.1,7.8-11
		l3.8,2.3c-1.3,2.1-2.4,4.1-3.8,5.8l-1.4,1.8l10.8,7.5l1.2-1.7c3.9-5.5,7-11.2,10.4-16.7l1.2-1.9l-15.6-8.5c1.9-4,4-8.1,5.9-12.3
		l4.2,1.7c-0.9,2-2,4.1-3.1,6.4l-0.8,1.9l11.6,5.5l0.9-1.8c2.8-5.4,4.9-11,6.9-16.6l0.1,0l1.2-3.6l0.1-0.3l0,0l0.1-0.2l-16.5-5.7
		c1.6-4.4,2.4-8.8,3.5-13l4.4,1l-2.3,8.9l12.5,3.6l0.5-2.1c1.6-6.3,3.5-12.6,4.3-19.4l0.2-2l-17.2-2.9c0.7-4.4,1.3-8.9,1.5-13.6
		l4.4,0.2c-0.1,2.4-0.2,4.8-0.5,7l-0.3,2.2l13,1.4l0.2-2.1c0.6-6,0.8-11.9,1.1-17.8h0.1v-2.5l0.1-1.5l-0.1,0v-0.3h-17.6
		c-0.2-4.4-0.4-8.9-0.7-13.5l4.5-0.5c0.2,2.3,0.2,4.6,0.4,7.1l0.1,2.1l12.9-0.7l0-2c-0.1-6.7-1-13.3-2.1-19.8l-0.4-2.1l-17.2,2.8
		c-0.7-4.6-1.9-9-3-13.3l4.3-1.2l2.3,8.9l12.7-2.8l-0.6-2.2c-1.7-5.9-2.7-12.2-5.1-18.3L371.6,141.1z M368.7,162.2l-2.3-9.1
		l-12.5,3.5l0.5,2c1.4,5.8,3.1,11.3,3.7,16.9l0.2,2.2l17.4-2.9c0.8,5,1.5,10,1.7,15l-4.6,0.2c-0.1-2.4-0.2-4.8-0.5-7.3l-0.3-2.1
		l-12.8,1.4l0.2,2.1c0.5,5.7,0.6,11.5,1,17.4l0.1,2h17.3c-0.3,5.1-0.4,10.2-0.8,15.2l-4.4-0.5c0.2-2.5,0.2-4.9,0.4-7.3l0.2-2.1
		l-13.1-0.7l0,2.2c-0.1,5.7-0.9,11.4-1.9,17.2l-0.3,2.1l17.3,2.9c-0.7,4.9-2.1,9.7-3.4,14.7l-4.3-1.2l2.3-9.1l-12.6-2.8l-0.6,1.9
		c-1.7,5.8-2.6,11.5-4.7,16.6l-0.9,2.1l16.7,5.7c-1.7,4.9-3.5,9.7-5.7,14.2l-4.1-2c1-2.1,2.2-4.3,3-6.8l0.6-1.9l-11.9-4.9l-0.8,2
		c-2.1,5.3-4.9,10.5-7.4,15.9l-0.8,1.8l15.2,8.2c-2.7,4.4-5.1,8.8-7.9,12.9l-3.7-2.5c1.5-2.1,2.6-4.3,3.8-6.2l1.2-1.8l-11.2-6.9
		l-1.1,1.9c-2.7,4.9-6.3,9.4-9.8,14.1l-1.2,1.7l13.8,10.8c-3,3.9-6.6,7.5-10.1,11.4l-3.2-3.1l6.3-7l-9.8-8.5l-1.4,1.5
		c-4,4.4-7.8,8.8-12.1,12.4l-1.7,1.4l11.9,13c-3.7,3.4-7.6,6.6-11.7,9.6l-2.7-3.7l7.5-5.7l-8.2-10l-1.6,1.1
		c-4.8,3.5-9.3,7.2-14,10.2l-1.8,1.2l9.6,14.6c-4.5,2.7-8.7,5.6-13.2,7.7l-2.1-4c2.2-1.1,4.4-2.3,6.5-3.6l1.7-1.1l-6.5-11.3
		l-1.9,1.2c-4.6,3.1-10.1,5.1-15.5,7.9l-1.8,0.9l7,15.9c-4.6,1.9-9.4,3.5-14.2,5.3l-1.3-4.3l8.9-3.2l-4.6-12.2l-2,0.8
		c-5.3,2.1-10.8,3.9-16.4,5.1l-2.1,0.5l4.3,17c-4.9,1.3-9.9,2.1-15,2.9l-0.6-4.5l9.3-1.4l-2.5-12.7l-2,0.3c-6,0.8-11.7,2.1-17.3,2.3
		l-2.2,0.1l1.4,17.4c-4.3,0.2-8.5,0.6-12.5,0.6c-0.8,0-1.7,0-2.5-0.1l0.1-4.5c0.9,0,1.9,0.1,2.8,0.1c1.5,0,3.1-0.1,4.6-0.2l2-0.2
		l-0.3-13l-2.3,0.2c-1.3,0.1-2.6,0.2-3.9,0.2c-4.3,0-8.8-0.6-13.4-0.6l-2,0l-1.4,17.3c-4.9-0.4-10-1.4-15.1-2.1l0.9-4.4l9.3,1.4
		l1.8-12.9l-2.1-0.3c-5.8-0.8-11.5-1.7-17-3.3l-2.1-0.6l-4.3,17.1c-4.9-1.2-9.7-2.7-14.4-4.5l1.6-4.3l8.9,3.2L157,353l-1.9-0.7
		c-5.5-2.1-11.1-3.8-16.2-6.2l-1.9-0.9l-7,16c-4.7-2.3-9.4-4.3-13.6-6.8l2.3-3.9c2.1,1.3,4.3,2.4,6.6,3.4l1.8,0.8l5.9-11.6l-2.1-0.9
		c-5.1-2.2-9.8-5.7-15.1-8.7l-1.7-1l-9.5,14.5c-4.1-2.8-8.1-5.9-12.1-9l2.9-3.5l7.5,5.7l7.8-10.5l-1.8-1.2
		c-4.7-3.3-9.1-6.9-13.2-10.9l-1.6-1.5L82,329.1c-3.7-3.3-7.1-7.1-10.6-10.9l3.4-3l6.3,7l9.3-9l-1.3-1.5c-3.9-4.6-8.3-8.5-11.4-13.2
		l-1.3-1.9l-13.9,10.8c-3.1-4.1-6.1-8.1-8.6-12.4l3.9-2.4c1.2,2,2.4,4.2,4,6.3l1.2,1.6l10.6-7.3l-1.2-1.7c-3.2-4.6-6.1-9.8-9.2-14.8
		l-1.1-1.7l-15.2,8.2c-2.2-4.7-4.6-9.2-6.5-13.8l4.1-1.7c1,2.4,2.2,4.5,3.1,6.6l0.9,2l11.9-5.6l-1.1-2c-2.7-5-4.5-10.5-6.5-16.1
		l-0.7-1.9l-16.6,5.7c-1.7-4.6-2.6-9.6-4-14.6l4.4-1l2.3,9.1l12.5-3.5l-0.5-2c-1.4-5.7-3.1-11.3-3.7-16.8l-0.2-2.2L29,228.2
		c-0.8-5.1-1.5-10.1-1.7-15.1l4.6-0.2c0.1,2.4,0.2,4.8,0.5,7.3l0.3,2.1l12.8-1.4l-0.2-2.1c-0.5-5.8-0.7-11.6-1-17.5l-0.1-2l-17.3,0
		c0.2-5.1,0.4-10.1,0.8-15.1l4.4,0.5c-0.2,2.5-0.2,4.9-0.4,7.3l-0.2,2.1l13.1,0.7l0-2.2c0.1-5.7,0.9-11.3,1.9-17.1l0.3-2.1
		l-17.3-2.9c0.7-4.9,2.1-9.8,3.4-14.9l4.3,1.2l-2.3,9.1l12.6,2.8l0.6-1.9c1.7-5.8,2.6-11.6,4.8-16.7l0.9-2.1l-16.7-5.7
		c1.7-4.8,3.5-9.5,5.6-14l4.1,2c-1,2.1-2.2,4.3-3,6.8l-0.6,1.9l11.9,4.9l0.8-2c2.1-5.3,4.9-10.4,7.4-15.8l0.8-1.8l-15.2-8.2
		c2.7-4.4,5.2-8.8,8-13l3.6,2.5c-1.4,2.1-2.6,4.3-3.8,6.2l-1.2,1.8l11.2,6.9l1.1-1.9c2.7-5,6.3-9.5,9.9-14.3l1.2-1.7L65.3,91.9
		c2.9-3.9,6.5-7.4,10-11.3l3.2,3.1l-6.3,7l9.8,8.5l1.4-1.5c3.9-4.3,7.7-8.7,12-12.3l1.7-1.4L85.1,71c3.7-3.5,7.6-6.7,11.8-9.7
		l2.7,3.7l-7.5,5.6l8.2,10l1.6-1.2c4.9-3.5,9.3-7.3,14.2-10.3l1.8-1.2l-9.5-14.6c4.4-2.7,8.6-5.5,13-7.7l2.1,4
		c-2.2,1.1-4.4,2.3-6.5,3.6l-1.7,1.1l6.5,11.3l1.9-1.3c4.6-3.1,10.1-5.1,15.4-7.8l1.8-0.9l-7-15.9c4.6-1.9,9.4-3.6,14.3-5.4l1.3,4.3
		l-8.9,3.2l4.6,12.2l2-0.8c5.4-2.2,10.9-3.9,16.5-5.1l2.1-0.5l-4.3-17.1c4.8-1.3,9.8-2.1,14.8-2.8l0.6,4.5l-9.3,1.4l2.5,12.7l2-0.3
		c5.9-0.8,11.6-2.1,17.2-2.3l2.2-0.1L190,26.5c4.3-0.2,8.6-0.6,12.7-0.6c0.8,0,1.7,0,2.5,0.1l-0.1,4.5c-0.9,0-1.9-0.1-2.8-0.1
		c-1.5,0-3.1,0.1-4.6,0.2l-2,0.2l0.3,13l2.3-0.2c1.3-0.1,2.6-0.2,3.9-0.2c4.3,0,8.8,0.6,13.5,0.6l2,0l1.4-17.3
		c4.9,0.4,9.9,1.4,14.9,2.1l-0.9,4.4l-9.3-1.4l-1.8,12.9l2.1,0.3c5.8,0.8,11.4,1.7,16.9,3.3l2.1,0.6l4.3-17.1
		c4.9,1.2,9.8,2.7,14.6,4.5l-1.6,4.3l-8.9-3.2l-3.9,12.4l1.9,0.7c5.6,2.1,11.2,3.9,16.4,6.2l1.9,0.9l7-16c4.7,2.3,9.3,4.2,13.5,6.7
		l-2.3,3.9c-2.1-1.3-4.3-2.4-6.6-3.4l-1.8-0.8l-5.9,11.6l2.1,0.9c5.1,2.1,9.7,5.6,14.9,8.6l1.7,1l9.5-14.5c4.2,2.8,8.1,5.9,12.3,9
		l-2.9,3.5l-7.5-5.7l-7.8,10.5l1.8,1.2c4.7,3.3,9.2,7,13.3,11l1.6,1.5l11.9-12.9c3.7,3.3,7,7.1,10.5,10.9l-3.4,3l-6.3-7l-9.3,9
		l1.3,1.5c3.9,4.6,8.2,8.5,11.3,13l1.3,1.9L342,95.4c3.1,4.1,6.2,8.2,8.7,12.5l-3.9,2.4c-1.2-2-2.4-4.2-4-6.2l-1.2-1.6l-10.6,7.3
		l1.2,1.7c3.3,4.7,6.1,9.8,9.2,14.9l1,1.7l15.2-8.2c2.2,4.6,4.5,9.1,6.5,13.7l-4.1,1.7c-1-2.4-2.2-4.5-3.1-6.6l-0.9-2l-11.9,5.6l1,2
		c2.6,4.9,4.5,10.4,6.5,15.9l0.7,1.9l16.5-5.7c1.7,4.6,2.7,9.6,4.1,14.7L368.7,162.2z"/>
	<path d="M390.8,201.4l0-2.1h-0.1c-0.4-19.3-3.6-38.6-9.6-57l0,0l-0.7-2l0,0l-0.7-2l0,0c-6.4-18.3-15.7-35.6-27.6-50.9l0,0l-1.1-1.5
		l-0.2-0.2l-1.3-1.7l0,0c-12.1-15.1-26.4-28.3-42.4-39.1l0,0l-1.8-1.2h0l0,0l-1.8-1.2l0,0c-16.3-10.6-34.4-18.2-53.1-23.2l0-0.1
		l-2-0.5l-0.1,0l-2.1-0.5l0,0C232,15,217.1,13,202.2,13c-4.4,0-8.9,0.2-13.3,0.6l0,0l-2.1,0.2l-0.1,0l-2.1,0.2l0,0
		c-19.2,1.9-38.2,6.6-56.1,14.1l0,0l-1.9,0.8l0,0l0,0l-1.9,0.8l0,0c-17.8,7.8-34,18.9-48.3,31.7l0,0l-1.4,1.3l-0.1,0.1l-1.6,1.4l0,0
		C59.2,77.6,47.1,93,37.6,109.9l-0.1,0l-1,1.8l0,0l-1,1.9l0.1,0c-9,17.2-15.2,35.7-18.6,54.8l0,0l-0.4,2.1v0l0,0l-0.4,2.1l0,0
		c-1.6,9.6-2.4,19.2-2.4,28.9c0,9.7,0.8,19.3,2.4,28.9h0l0.3,2l0,0.1l0.4,2.1l0,0c3.4,19,9.7,37.6,18.6,54.8l-0.1,0l1,1.8l0,0.1
		l1,1.9l0.1,0c9.5,16.9,21.6,32.2,35.7,45.5l0,0l1.6,1.4v0l0,0l1.5,1.4l0,0c14.4,12.9,30.6,23.9,48.3,31.7l0,0l1.9,0.8h0l0,0
		l1.9,0.8l0,0c17.8,7.5,36.8,12.2,56.1,14.1v0l2.1,0.2h0h0l2.1,0.2l0,0c4.4,0.4,8.9,0.6,13.3,0.6c14.9,0,29.8-2,44.3-5.4l0,0
		l2.1-0.5l2-0.5l0-0.1c18.7-5,36.8-12.6,53.1-23.2l0,0l1.8-1.2l0,0l0.1-0.1l1.7-1.1l0,0c16-10.8,30.3-24.1,42.4-39.2l0,0l1.3-1.7
		l0.1-0.2l1.2-1.5l0,0c11.8-15.3,21.2-32.5,27.6-50.9l0,0l0.7-2l0-0.1l0.7-2l0,0c6-18.4,9.2-37.7,9.6-57h0.1L390.8,201.4
		L390.8,201.4z M376.5,261.3L376.5,261.3c-6.4,19.3-16.3,37.3-28.8,53.2l-0.1,0.1c-12.5,16-27.6,29.9-44.5,41.1l-0.1,0.1
		c-16.8,11.3-35.9,19.3-55.6,24.3l-0.1,0c-14.8,3.6-30.1,5.8-45.2,5.8c-5,0-10-0.2-15-0.7h0c-20.2-1.8-40.2-6.7-58.8-14.8l-0.2-0.1
		c-18.6-8-35.6-19.5-50.5-33.2l0,0c-14.9-13.7-27.5-29.8-37.3-47.6l0-0.1c-9.6-17.8-16.1-37.3-19.5-57.2l0-0.3
		c-1.7-10-2.6-20.1-2.6-30.3c0-10.1,0.9-20.2,2.6-30.1l0-0.2c3.3-20,9.9-39.5,19.5-57.4l0-0.1C50,96,62.7,79.8,77.5,66.1l0.1-0.1
		c14.9-13.6,31.8-25.2,50.5-33.2l0.2-0.1c18.6-8.1,38.6-13.1,58.8-14.8l0.1,0c5-0.5,10-0.7,15-0.7c15.2,0,30.5,2.1,45.3,5.8
		c19.7,5,38.7,13,55.5,24.3l0,0c16.9,11.2,32,25.1,44.6,41.1l0,0.1c12.6,15.9,22.4,34,28.8,53.2l0.1,0.3c6.5,19.2,9.8,39.4,10,59.6
		C386.4,221.7,383.1,242,376.5,261.3z"/>
	<path d="M348.2,153.7l-0.7-2l0,0l0,0l-0.7-2l0,0c-5.1-14.7-12.6-28.4-22.1-40.7l0,0l-1.2-1.5l-0.1-0.1l-1.3-1.7l0,0
		c-9.7-12.1-21.2-22.7-34-31.4l0,0l-1.5-1c-0.1,0-0.2-0.1-0.2-0.2l-1.8-1.2l0,0c-13.1-8.5-27.6-14.5-42.5-18.5l0-0.1l-2-0.5l0,0
		l-2.1-0.5l0,0c-11.6-2.7-23.7-4.4-35.7-4.4c-3.5,0-7,0.2-10.5,0.5v0l-2.1,0.2l-0.1,0l-2.1,0.2l0,0c-15.4,1.6-30.5,5.3-44.8,11.3
		l0,0l-1.8,0.7l-0.2,0.1l-1.9,0.8l0,0C124.5,68,111.5,76.9,100,87.2l0,0l-1.4,1.3l-0.1,0.1L96.9,90l0,0
		c-11.3,10.7-20.9,23-28.6,36.5l-0.1,0l-1,1.8l0,0l-1,1.9l0.1,0c-7.1,13.8-12.1,28.6-14.9,43.9l0,0l-0.4,2.1v0v0l-0.4,2.1l0,0
		c-1.2,7.7-1.9,15.4-1.9,23.2c0,7.8,0.7,15.5,1.9,23.2l0,0l0.4,2.1v0v0l0.4,2.1l0,0c2.8,15.2,7.8,30.1,14.9,43.9l-0.1,0l1,1.8l1,1.9
		l0.1,0c7.7,13.5,17.4,25.8,28.6,36.5l0,0l1.5,1.4l0,0l1.6,1.4l0,0c11.5,10.3,24.5,19.2,38.7,25.5l0,0l1.9,0.8l0,0l1.9,0.8l0,0
		c14.3,5.9,29.4,9.7,44.8,11.3v0l2.1,0.2l0.1,0l2.1,0.2v0c3.5,0.3,7,0.5,10.5,0.5c12.1,0,24.1-1.7,35.7-4.4l0,0l2.1-0.5l0.1,0
		l1.9-0.5l0-0.1c14.9-4,29.4-10,42.5-18.5l0,0l1.8-1.2l0.1-0.1l1.6-1.1l0,0c12.8-8.7,24.3-19.3,34-31.4l0,0l1.3-1.7l0-0.1l1.3-1.6
		l0,0c9.5-12.3,17-26.1,22.1-40.7l0,0l0.7-2l0,0l0.7-2l0,0c4.8-14.8,7.3-30.2,7.7-45.7h0.1l0-2.1v0l0-2.1l-0.1,0
		C355.5,183.8,352.9,168.4,348.2,153.7L348.2,153.7z M351.7,201.5L351.7,201.5c-0.2,16.5-2.9,32.9-8.2,48.4l-0.1,0.2
		c-5.2,15.5-13.1,30.1-23.3,42.9l-0.1,0.1c-10.1,12.9-22.3,24.1-36,33.2l-0.1,0.1c-13.6,9.2-29.1,15.6-45,19.6l0,0
		c-12,2.9-24.4,4.7-36.7,4.7c-4.1,0-8.1-0.2-12.2-0.6h0v0c-16.4-1.4-32.6-5.5-47.7-12l-0.1,0c-15.1-6.4-28.8-15.9-41-26.9l-0.1-0.1
		c-12.1-11.1-22.3-24.2-30.3-38.6l0,0c-7.7-14.5-13-30.2-15.7-46.4l0-0.1c-1.4-8.1-2.1-16.3-2.1-24.6c0-8.2,0.7-16.4,2.1-24.5l0-0.1
		v0v0c2.7-16.2,8-32,15.8-46.5c8-14.4,18.3-27.5,30.4-38.7l0,0c12.1-11.1,25.9-20.5,41-26.9l0.1,0l0,0l0.3-0.1
		c14.9-6.4,30.8-10.4,47-11.8l0.4,0h0c4-0.4,8.1-0.6,12.2-0.6c12.3,0,24.7,1.8,36.7,4.7l0,0l0,0l0.1,0c15.9,4.1,31.3,10.4,44.9,19.6
		l0,0c13.7,9.1,26,20.4,36.1,33.3l0,0c10.2,12.9,18.2,27.5,23.4,43.1l0,0v0C348.8,168.6,351.5,185,351.7,201.5z"/>
	<path d="M153.8,164.7c-0.5-3.5,1.2-6.6,4.2-7.4c7.7-2.1,15.9,3.5,15.3,13.6c-0.6,9.9-5.6,16.5-15.8,18.6c-8,1.7-15.2-0.7-20.5-8
		c-5.3-7.3-6.7-15.8-4.1-24.9c1.6-5.6,2.8-6.3,7.9-6.3c14,0,27.9,0,41.9,0c1.8,0,2.8,0.5,3.8,2.5c7.3,14,24,14,31.3,0.1
		c1.1-2.1,2.2-2.6,4.1-2.6c14.4,0.1,28.8,0.1,43.2,0c2.6,0,4,1.2,5.2,3.6c6.5,12.9-0.4,31.4-13.2,35.3c-5.5,1.7-10.9,1.1-16.1-1.5
		c-7.1-3.5-10.9-11.6-9.7-20.4c1-8,10.9-13.2,16.9-9c2.2,1.6,2.9,3.2,2.5,6.6c-1.3-0.5-2.4-1-3.7-1.4c-4.3-1.1-7.4,2.2-6.8,7.3
		c0.5,4.1,3.1,7.3,6.2,7.8c3,0.4,5.5-1.5,7.1-5.5c2.5-6.3,0.8-14-3.9-17.1c-5.7-3.7-14.5-1.7-18,4.6c-1.3,2.4-2.6,5.3-2.5,8
		c0,5.8-2.7,9.4-6,12.9c-12.6,13.5-36.4,10.7-46-5.4c-0.9-1.5-1.4-3.7-1.5-5.5c-0.5-11.6-8.7-18.7-18.5-15.6
		c-4.3,1.3-6.7,4.7-7.2,9.7c-0.6,5.1,0.3,9.6,3.9,12.9c2.2,2,5.5,1.5,7.8-0.9c2.5-2.6,3.3-7.4,1.7-10.4c-1.7-3.1-4.2-3.3-6.9-2.2
		C155.6,164.2,154.7,164.4,153.8,164.7z"/>
	<path d="M231.3,295.8c-0.3,0.1-0.7-0.1-0.7-0.5l-0.1-57.4c0-4.2-4.4-4.2-4.4-0.1l0.1,59.2c0,0.2-0.2,0.4-0.4,0.5l-7,2
		c-0.3,0.1-0.7-0.2-0.7-0.5l0.1-61c0-4.3-5.3-4.2-5.3,0c0,7.3-0.1,53.9-0.1,62.5c0,0.2-0.2,0.4-0.4,0.5l-6.7,1.5
		c-0.3,0.1-0.6-0.2-0.6-0.5l0-64c0-4.1-6.1-4.2-6.1,0c0,2.4-0.1,56.9-0.1,64c0,0.3-0.3,0.6-0.6,0.5c-1.5-0.4-5.1-1.2-6.3-1.5
		c-0.2-0.1-0.4-0.3-0.4-0.5l0-62.4c0-4.2-5.5-4.2-5.5,0l-0.2,61c0,0.3-0.3,0.6-0.7,0.5l-5.8-1.8c-0.2-0.1-0.4-0.3-0.4-0.5
		c0-5.3,0-57.1,0-59.2c0-4.2-4.5-4.2-4.5,0l0,57.4c0,0.4-0.4,0.6-0.7,0.5l-6-2.2c-0.2-0.1-0.3-0.3-0.3-0.5c-0.1-4.6,0-50-0.1-51.1
		c-0.3-3,0.2-5.7-1.7-8.7c-1.2-1.9-0.5-5.8-0.3-9.5c0-0.8,0.7-1.5,1.6-1.5h71.8c0.9,0,1.6,0.8,1.6,1.6c-0.1,3.9,1.2,7.8-1.5,11.6
		c-1.2,1.7-0.4,52.5-0.3,57.4c0,0.2-0.1,0.4-0.4,0.5L231.3,295.8z"/>
	<path d="M158.2,200c9-3,13.5-10.8,16.7-20.7c7.4,10,16.4,14.4,27.2,14.4c10.8,0,19.9-4.3,27.3-14.4c3.3,9.6,7.5,17.7,16.7,20.5
		c-0.2,0.4-0.3,0.7-0.5,1.1c-28.9,0-57.8,0-86.8,0C158.7,200.7,158.4,200.3,158.2,200z"/>
	<path d="M247.3,204c2.1,0.1,4.6,0.6,4.4,3.8c-0.2,3-2.3,3.6-4.6,3.6l-90.5,0c-2.2,0-3.7-1-3.7-3.7c0.1-2.6,1.5-3.7,3.7-3.7
		L247.3,204z"/>
	<path d="M185.1,329.8c0.7-9.8,6.8-15.3,14.2-20.8c-6-1.4-12.1-2.6-18-4.2c-38.9-10.5-65.2-35.6-74-78.7
		c-6.4-30.9,1.6-58.5,20.4-82.5c0.4-0.5,0.8-0.8,1.8-0.8c-0.7,0.9-1.3,1.8-2,2.7c-14.6,18.9-22.7,40.6-21.2,65.1
		c2.6,43.7,24.5,72.7,61.6,88.7c7.4,3.2,15.6,3.9,23.2,6.3c7.6,2.4,14.9,1.4,22.6,0.2c24.6-4.1,45.8-14.9,62.4-35.1
		c13-15.8,20.6-34.3,22.2-55.5c2-27.1-5.8-50.7-22.1-71.1c-0.2-0.3-0.4-0.6-0.6-1c0-0.1,0-0.2,0-0.8c0.5,0.3,0.8,0.5,1.1,0.8
		c16.1,19.8,24.5,42.9,22.7,69.1c-3.1,43.9-25.6,72.8-63,88.6c-8.3,3.5-17.3,4.8-26,7.1c-1.6,0.4-3.1,1-4.6,1.6c3.3,3,6.8,5.8,9.7,9
		c2.8,3.1,4.8,6.9,4.1,11.6c-2-8.7-7.5-13.9-14.4-17.8c-1.9-1.1-3.5-1.3-5.6-0.1C192.8,316.1,187.2,321.2,185.1,329.8z"/>
	<path d="M263.4,287.7c8.4-7.4,23-8.3,32.2-1.8C289.1,294.2,273.5,293.9,263.4,287.7z"/>
	<path d="M283.5,114.1c7.1,7.9,7.9,23.7,2.4,34.5C279.2,139.7,277.4,122.9,283.5,114.1z"/>
	<path d="M307.6,271.4c-7,8.1-20.7,10-30.4,4.2C286,267.5,298.7,265.6,307.6,271.4z"/>
	<path d="M320.8,233.3c-3.7,10.4-14.2,17.2-26.5,17.1C298.1,239.8,311.1,231.3,320.8,233.3z"/>
	<path d="M321.4,188.5c-0.4,11.7-10.2,25.5-19.1,26.8C301.4,205.6,310.7,192.3,321.4,188.5z"/>
	<path d="M309.3,147.2c2.5,12.5-1.9,22-9.6,30.5C296.8,168.3,301,151.8,309.3,147.2z"/>
	<path d="M275.7,232.6c7.2,10.8,6.2,21.5,1.6,32.5C270.4,256.7,269.1,240.4,275.7,232.6z"/>
	<path d="M323.7,210.8c-2.3,11.6-12.4,21.4-23.8,23.3C303.4,220.8,314.6,209.7,323.7,210.8z"/>
	<path d="M317.5,167.9c2.1,9.8-4.8,23.3-15.1,29.8C301.1,185.7,308.1,171.9,317.5,167.9z"/>
	<path d="M250.6,296.5c9.3-6.3,22.2-3.9,28.6,5.2C273.1,308.3,259.8,306.2,250.6,296.5z"/>
	<path d="M278.9,215.8c6.7,2.9,12.3,16.8,9.2,28.6C279.9,238.7,274.8,222.8,278.9,215.8z"/>
	<path d="M294.9,224.1c-10.4-5.6-16.9-17.8-14.8-27.4C288.6,198.6,296.5,213.2,294.9,224.1z"/>
	<path d="M285.8,263.1c7.4-9.6,21.6-14,29.1-9C309.6,263.1,295.3,267.5,285.8,263.1z"/>
	<path d="M266.7,249.5c4.9,8.3,3,23.9-3.7,30.7C258.5,269,260.1,255.6,266.7,249.5z"/>
	<path d="M247.1,291.3c-1.9-11.6-0.2-21.6,9.2-28.9C260.5,268.7,256.1,284.6,247.1,291.3z"/>
	<g>
		<path d="M240.2,97.4c1-0.8,2-1.5,3-2.2c2.1-1.6,4.4-2.2,6.8-0.8c2.3,1.4,2.9,3.9,3,6.4c0.1,4.7,0.1,9.3,0.1,14
			c0,4.8,0.1,9.6,0.2,14.3c0,1.3-0.3,1.3-1.3,1c-2.6-0.9-2.9-1.2-2.8-4.1c0.1-7.4,0.2-14.7,0.3-22.1c0-1.2,0-2.4-0.3-3.5
			c-0.9-3.2-2.9-4.3-5.8-3.1c-2.6,1.1-3.2,2-3.2,5c0,4.5,0,9.1,0,13.6c0,0.6,0.2,1.4-0.6,1.5c-1,0.2-2.1,0.4-3.1,0.3
			c-0.4,0-0.2-0.9-0.2-1.4c0-5.4,0-10.8,0.1-16.2c0-1.6-0.2-2.9-2-3.1c-0.4,0-0.8-0.1-0.8-0.8c0-0.6,0.3-0.9,0.8-1
			c1.5-0.5,2.9-0.9,4.4-1.4c0.7-0.3,1,0.3,1.1,0.8C239.8,95.4,240,96.4,240.2,97.4z"/>
		<path d="M201.4,105.1c-1.4-0.7-2.7-1.2-3.5-2.5c-1.3-2.2-0.8-5.1,1.3-6.9c2.6-2.3,7.9-2.8,10.9-1.1c0.9,0.5,1.5,1.2,1.8,2.2
			c0.4,1.3-0.1,2.3-1.1,2.8c-1.1,0.5-1.6-0.1-2-1.3c-0.9-2.7-2.8-3.6-5-2.7c-1.8,0.7-2.9,3-2.3,5.1c0.5,1.8,1.8,2.5,3.4,2.8
			c0.6,0.1,1.3-0.1,1.9,0.1c0.6,0.1,1.7-0.7,1.6,0.5c-0.1,0.8-0.3,2.4-1.9,2.2c-1.1-0.1-2.2-0.2-3.3,0.2c-3,0.9-3.8,4.2-1.6,6.6
			c2.1,2.3,6,2.3,8.7,0.1c0.4-0.3,0.7-0.7,1.1-1c0.4-0.4,0.6-1,1.3-0.3c0.5,0.5,0.4,0.9,0.1,1.4c-1.8,2.7-4.2,4.4-7.3,4.7
			c-2.3,0.2-4.5-0.1-6.4-1.4c-2-1.4-3-3.3-2.9-5.9c0.1-2.3,1.5-3.6,3.3-4.5C200.1,105.8,200.7,105.5,201.4,105.1z"/>
		<path d="M224,94.4c1.4,0,2.7,0,4.1,0c1.1,0,2.1,0.1,2.9-1c0.3-0.5,0.7-0.4,1.1-0.2c0.6,0.2,0.4,0.7,0.3,1.1
			c-0.4,3.1-0.8,3.4-3.8,3.5c-1.4,0.1-3.1-0.9-4,0.3c-0.8,1-0.3,2.8-0.3,4.2c0,2.8-0.1,5.5,0,8.3c0.1,3.1,1,3.8,3.8,3.4
			c0.5-0.1,0.8-0.1,1,0.4c0.2,0.5,0,0.8-0.2,1.2c-0.9,1.3-3.8,2.5-5.2,2.1c-1.9-0.5-2.5-2.1-2.7-4c-0.3-2.5-0.1-5-0.1-7.5
			c0-1.6,0.2-3.1,0.2-4.7c0.1-4.3-0.2-4.5-4.2-3.6c-1,0.2-1.9,0.7-2.8,1.1c-0.4,0.2-0.7,0.6-1.2-0.1c-0.4-0.6-0.3-1,0.2-1.4
			c1.8-1.9,3.9-3,6.4-3.1C220.9,94.3,222.4,94.4,224,94.4C224,94.4,224,94.4,224,94.4z"/>
		<path d="M164.7,86.6c0,2.1-1.8,4.4-3.8,4.8c-0.4,0.1-0.8,0.1-1-0.4c-0.2-0.5,0-0.8,0.4-1.1c0.3-0.2,0.6-0.4,0.9-0.6
			c0.7-0.6,1-1.3,0.8-2.3c-0.2-1-0.9-1.3-1.6-1.5c-0.9-0.2-1.6-0.4-1.4-1.6c0.2-1.1,0.8-1.6,1.8-1.6C163,82,164.7,84,164.7,86.6z"/>
		<path d="M243.3,88.9c0.1-1.7,0.2-3.5,0.4-5.2c0.1-1,3-2.3,3.7-1.7c0.3,0.3,0.2,0.7,0.1,1c-0.9,2.5-1.8,5-2.8,7.5
			c-0.2,0.6-0.5,0.8-1.1,0.7c-0.7-0.1-0.6-0.6-0.5-1.1C243.2,89.7,243.2,89.3,243.3,88.9z"/>
		<path d="M179.5,116.4c0,3.5,0,6.9,0,10.3c0,1.9-1.9,3.8-3.7,3.6c-0.7-0.1-0.5-0.5-0.5-1c0-8-0.1-16,0.1-23.9
			c0.1-5.6,3.5-10,8.2-11.4c3.8-1.1,7.7,0.8,9.4,4.6c3.4,7.7-1.3,17.6-9.2,19.2C182.2,118.1,180.8,117.3,179.5,116.4z M188,98.5
			c-1.4-1.9-3.3-2.7-5.5-2.2c-2,0.5-2.6,2.3-3,4.2c-0.7,3.9-0.3,7.9-0.3,11.8c0,0.3,0.1,0.6,0.3,0.8c2.4,2.9,7.5,2.4,9.4-1
			c1-1.9,1.3-4,1.3-6.2C190.2,103.3,189.6,100.8,188,98.5z"/>
		<path d="M166.3,111.8c-0.8,1.6-1.7,2.8-2.8,3.9c-3.1,3.1-7.2,2.8-9.8-0.9c-3.6-5.1-3.1-12.3,1.1-17.1c1.3-1.4,2.7-2.6,4.4-3.4
			c2.6-1.2,4.6-0.6,6.2,1.9c0.5,0.8,0.9,1.6,1.4,2.6c0.2-2.2,0.9-3.8,2.8-4.6c0.4-0.2,0.8-0.7,1.3-0.2c0.5,0.4,0.2,0.9,0.1,1.4
			c-0.8,3.9-1.3,7.8-1.3,11.8c0,1.7,0.2,3.4,0.7,5c0.5,1.5,1.3,2.4,2.9,1.7c0.3-0.1,0.6-0.4,0.9,0c0.3,0.4,0.3,0.9,0,1.4
			c-0.9,1.5-2.1,2.5-3.9,2.5c-1.7,0-2.7-1.1-3.2-2.7C166.8,114.1,166.6,113,166.3,111.8z M163,97.5c-2-1.6-4-1.4-5.6,0.5
			c-3,3.7-2.7,11.8,0.5,15.1c1.5,1.6,3,1.8,4.7,0.5c2.6-2,3.3-5,3.5-7.7C166.1,101.9,164.9,99.1,163,97.5z"/>
	</g>
	<path d="M139.6,137c-1.5,0-2.7,1.2-2.7,2.7c0,0.7,0,1.3,0,2c0,5,0,5.1,4.5,5.1l39.7,0c1.5,0,2.7-1.2,2.7-2.7v-4.4
		c0-1.5-1.2-2.7-2.7-2.7L139.6,137z"/>
	<path d="M264.9,137.1h-41.7c-1.4,0-2.6,1.2-2.6,2.6v4.5c0,1.4,1.2,2.6,2.6,2.6l0,0c12.4,0,24.8,0,37.2,0c7,0,7.6,0,7.2-7.2
		C267.4,138.1,266.3,137.1,264.9,137.1z"/>
	<path d="M214.5,138.9c0.6,0.4,1.1,0.4,1.3,0.4c1.2-0.1,1.5-0.5,2.2-1.4c0.2,1.2-0.3,2.5-1.2,3.2c-0.9,0.8-2.4,1.6-3.3,1.3
		c-2.6-0.6-2.9-1.7-4.5-1.8c0.6-1.7,0.2-3.4,0-4.7l0.2-0.2c1.8-0.2,2.7,0,3.8,1C213.6,137.4,214.2,138.7,214.5,138.9z M210.8,131.3
		c1.3-0.6,1.7-2.5,2.4-3.8c0.3,0.1,0.4,0.5,0.4,0.9c-0.1,1-0.1,2-0.2,2.9c0,0.7-0.1,1.5-0.6,2c-0.6,0.6-1.6,0.9-2.4,0.6
		c-1.4-0.5-1.8,1.8-2,1c-0.4-1.4-2.4-2.5-3.6-2.7c0.5-0.9,1.8-1.2,2.6-1.2C208.4,131,210,131.7,210.8,131.3z M200,129.1
		c0.4-0.7,0.9-1.1,1.5-1.6c0.6-0.5,0.8-1.9,0.5-2.7c-0.3-0.7-0.9-1.2-1-1.9c1.6-0.3,3.2,0.8,4.2,2.2c1,1.4,1.7,3.3-0.1,4.9
		c-0.6,0.5-0.2,1.2-0.3,1.4c-0.3,0.3-1.2-0.7-3-0.7c-1.3,0-1.8,0.7-1.8,0.7C199.3,130.7,199.5,129.8,200,129.1z M190.5,127.6
		c1.7-1.4,7.3,0.4,8.5,3.7c0.3,1-0.3,1-1.1,1.4c-0.8,0.4-1.2,1.4-1.6,2.2c-0.2,0.4-0.5,0.9-1,1c-0.4,0.1-0.9-1.2-0.9-1.7
		c0-0.7,0.1-0.7,0.1-1.1c0.1-1.3-0.2-2-0.7-3.2c-0.5-1.2-1.8-2.2-2.9-2C190.3,128,189.3,128.6,190.5,127.6z M188.8,135.4
		c1.2-0.9,2.9-1.2,4.4-0.3c0.9,0.5,1.6,1,1.2,2.7c-0.4,1.6,0.2,2.6,0.3,3.6c-0.9-1.5-2.5-3.1-4.1-3.3c-1.6-0.2-3.2,1.2-4.3,2.5
		C186.2,139,187.8,136.2,188.8,135.4z M208.7,153.2c-1.5-0.7-2.3-2.4-4.2-1.1c-1.6,1.1-2.8,2.5-4.3,2.9c-2.1,0.5-4.6-1.7-6.8-3.5
		c-1.4-1.1-4.8-0.6-4.8-0.6c-0.9-1.3,2.5-1.8,4.4-1.5c1.9,0.4,4.1,2.2,6.6,2c2.5-0.2,4.4-3.2,6-3.4c2.3-0.3,2.7,1.2,4.3,2.8
		c1.5,1.6,5.3,1.6,5.6,2.1C216.3,154.8,210.8,154.1,208.7,153.2z M212.3,147.6c-3.9,0-3.9-2.6-6.6-2.7c-2.7-0.2-3.7,2.7-7,2.7
		c-3.4,0-4.9-1.3-6.3-2.7c-1.4-1.5-4.4-0.9-5.6-1c-1.2-0.1,4.2-2,7.2-0.8c3,1.2,4.2,3.4,7.4,1c3.2-2.4,4.6-2.8,6.5-1.3
		c4.8,3.7,8.9,3.1,9.7,3.8C218.2,147.2,216.2,147.5,212.3,147.6z"/>
	<path d="M295.8,201.9c-10.2-4.1-17.6-15.2-16.7-24.7C287,178,296,191.1,295.8,201.9z"/>
	<path d="M291.9,179.2c-10.1-3.6-17.8-14.2-17.5-23.6C282.3,156,291.6,168.5,291.9,179.2z"/>
	<path d="M296.2,129c5.9,8.8,4.6,24.6-2.3,34.5C288.5,153.8,289,136.9,296.2,129z"/>
	<g>
		<path d="M141.6,287.7c-8.4-7.4-23-8.3-32.2-1.8C115.9,294.2,131.6,294,141.6,287.7z"/>
		<path d="M121.5,114.2c-7.1,7.9-7.9,23.7-2.4,34.5C125.8,139.8,127.6,122.9,121.5,114.2z"/>
		<path d="M97.4,271.4c7,8.1,20.7,10,30.4,4.2C119,267.5,106.3,265.7,97.4,271.4z"/>
		<path d="M84.2,233.3c3.7,10.4,14.2,17.2,26.5,17.1C107,239.9,94,231.4,84.2,233.3z"/>
		<path d="M83.6,188.6c0.4,11.7,10.2,25.5,19.1,26.8C103.6,205.7,94.3,192.4,83.6,188.6z"/>
		<path d="M95.7,147.2c-2.5,12.5,1.9,22,9.6,30.5C108.2,168.4,104,151.9,95.7,147.2z"/>
		<path d="M129.4,232.6c-7.2,10.8-6.2,21.5-1.6,32.5C134.6,256.8,135.9,240.5,129.4,232.6z"/>
		<path d="M81.3,210.8c2.3,11.6,12.4,21.4,23.8,23.3C101.7,220.8,90.4,209.8,81.3,210.8z"/>
		<path d="M87.5,167.9c-2.1,9.8,4.8,23.3,15.1,29.8C103.9,185.7,96.9,171.9,87.5,167.9z"/>
		<path d="M154.4,296.6c-9.3-6.3-22.2-3.9-28.6,5.2C131.9,308.3,145.2,306.2,154.4,296.6z"/>
		<path d="M126.1,215.8c-6.6,2.9-12.3,16.8-9.2,28.6C125.1,238.7,130.2,222.8,126.1,215.8z"/>
		<path d="M110.1,224.1c10.4-5.6,16.9-17.8,14.8-27.4C116.4,198.6,108.5,213.2,110.1,224.1z"/>
		<path d="M119.2,263.2c-7.4-9.6-21.6-13.9-29.1-9C95.5,263.1,109.7,267.5,119.2,263.2z"/>
		<path d="M138.3,249.5c-4.9,8.3-3,23.9,3.7,30.7C146.6,269,144.9,255.6,138.3,249.5z"/>
		<path d="M157.9,291.4c1.9-11.6,0.2-21.6-9.2-28.9C144.5,268.7,148.9,284.6,157.9,291.4z"/>
		<path d="M109.2,201.9c10.2-4.1,17.6-15.2,16.7-24.7C118,178,109,191.1,109.2,201.9z"/>
		<path d="M113.1,179.2c10.1-3.6,17.8-14.2,17.5-23.6C122.7,156,113.4,168.6,113.1,179.2z"/>
		<path d="M108.8,129.1c-5.9,8.8-4.6,24.6,2.3,34.5C116.5,153.8,116,136.9,108.8,129.1z"/>
	</g>
	<path d="M240.7,214.1c2.1,0.1,5.2-0.4,5,2.8c-0.2,3-2.7,3.2-5,3.2h-75.6c-2.2,0-5.2-0.5-5.1-3.2c0.1-2.6,3.1-3,5.4-3L240.7,214.1z"
		/>
</g>
</svg>
