<?xml version="1.0" encoding="UTF-8" standalone="no"?>
<!DOCTYPE svg PUBLIC "-//W3C//DTD SVG 1.1//EN"
"http://www.w3.org/Graphics/SVG/1.1/DTD/svg11.dtd">
<svg viewBox="0 0 935 1210" version="1.1" xmlns="http://www.w3.org/2000/svg" xmlns:xlink="http://www.w3.org/1999/xlink">
<defs>
<clipPath id="c0_1"><path d="M0,1210V0H935V1210Z" /></clipPath>
<clipPath id="c1_1"><path d="M0,1208.9V0H935V1208.9Z" /></clipPath>
<style type="text/css"><![CDATA[
.g0_1{
fill: #FFFFFF;
}
.g1_1{
}
.g2_1{
fill: #999999;
}
]]></style>
</defs>
<path d="M0,0H935V1210H0V0Z" class="g0_1" />
<path d="M0,0H935V1210H0V0Z" class="g0_1" />
<g clip-path="url(#c0_1)">
<path d="M0,0H935V3630H0V0Z" class="g0_1" />
</g>
<path d="M0,0H935V1208.9H0V0Z" class="g0_1" />
<g clip-path="url(#c1_1)">
<path d="M0,68.8H935V1210H0V68.8Z" class="g0_1" />
</g>
<path d="M0,0V0Z" class="g1_1" />
<path d="M68.8,116.9H215.4V118H68.8v-1.1Z" class="g2_1" />
<path d="M230.3,116.9H385V118H230.3v-1.1Z" class="g2_1" />
<path d="M399.9,116.9H550V118H399.9v-1.1Z" class="g2_1" />
<path d="M68.8,111.1H215.4v1.2H68.8v-1.2Z" class="g2_1" />
</svg>